<mxfile host="app.diagrams.net" modified="2024-06-27T19:02:22.660Z" agent="Mozilla/5.0 (Windows NT 10.0; Win64; x64) AppleWebKit/537.36 (KHTML, like Gecko) Chrome/126.0.0.0 Safari/537.36 Edg/126.0.0.0" etag="2x0PEu7xksA4LPC7rSAc" version="24.6.3" type="device">
  <diagram name="PÃ¡gina-1" id="oeW5EZ5inyWE1BfYLgd5">
    <mxGraphModel dx="1242" dy="577" grid="1" gridSize="10" guides="1" tooltips="1" connect="1" arrows="1" fold="1" page="1" pageScale="1" pageWidth="827" pageHeight="1169" math="0" shadow="0">
      <root>
        <mxCell id="0" />
        <mxCell id="1" parent="0" />
        <mxCell id="iT8rU-bSZ2E1efpX0zBj-6" value="" style="edgeStyle=orthogonalEdgeStyle;rounded=0;orthogonalLoop=1;jettySize=auto;html=1;entryX=0.5;entryY=0.227;entryDx=0;entryDy=0;entryPerimeter=0;" edge="1" parent="1" source="iT8rU-bSZ2E1efpX0zBj-1" target="iT8rU-bSZ2E1efpX0zBj-2">
          <mxGeometry relative="1" as="geometry" />
        </mxCell>
        <mxCell id="iT8rU-bSZ2E1efpX0zBj-1" value="inicio" style="strokeWidth=2;html=1;shape=mxgraph.flowchart.start_1;whiteSpace=wrap;" vertex="1" parent="1">
          <mxGeometry x="364" y="30" width="100" height="60" as="geometry" />
        </mxCell>
        <mxCell id="iT8rU-bSZ2E1efpX0zBj-7" value="" style="edgeStyle=orthogonalEdgeStyle;rounded=0;orthogonalLoop=1;jettySize=auto;html=1;" edge="1" parent="1" source="iT8rU-bSZ2E1efpX0zBj-2" target="iT8rU-bSZ2E1efpX0zBj-3">
          <mxGeometry relative="1" as="geometry" />
        </mxCell>
        <mxCell id="iT8rU-bSZ2E1efpX0zBj-2" value="&lt;div&gt;&lt;br&gt;&lt;/div&gt;&lt;div&gt;leia&lt;/div&gt;" style="html=1;strokeWidth=2;shape=manualInput;whiteSpace=wrap;rounded=1;size=26;arcSize=11;" vertex="1" parent="1">
          <mxGeometry x="364" y="110" width="100" height="60" as="geometry" />
        </mxCell>
        <mxCell id="iT8rU-bSZ2E1efpX0zBj-8" value="" style="edgeStyle=orthogonalEdgeStyle;rounded=0;orthogonalLoop=1;jettySize=auto;html=1;" edge="1" parent="1" source="iT8rU-bSZ2E1efpX0zBj-3" target="iT8rU-bSZ2E1efpX0zBj-4">
          <mxGeometry relative="1" as="geometry" />
        </mxCell>
        <mxCell id="iT8rU-bSZ2E1efpX0zBj-3" value="saque/100" style="strokeWidth=2;html=1;shape=mxgraph.flowchart.display;whiteSpace=wrap;" vertex="1" parent="1">
          <mxGeometry x="364" y="210" width="100" height="60" as="geometry" />
        </mxCell>
        <mxCell id="iT8rU-bSZ2E1efpX0zBj-27" value="" style="edgeStyle=orthogonalEdgeStyle;rounded=0;orthogonalLoop=1;jettySize=auto;html=1;" edge="1" parent="1" source="iT8rU-bSZ2E1efpX0zBj-4" target="iT8rU-bSZ2E1efpX0zBj-11">
          <mxGeometry relative="1" as="geometry" />
        </mxCell>
        <mxCell id="iT8rU-bSZ2E1efpX0zBj-4" value="saque = saque MOD 100" style="rounded=1;whiteSpace=wrap;html=1;absoluteArcSize=1;arcSize=14;strokeWidth=2;" vertex="1" parent="1">
          <mxGeometry x="364" y="300" width="100" height="50" as="geometry" />
        </mxCell>
        <mxCell id="iT8rU-bSZ2E1efpX0zBj-10" value="" style="edgeStyle=orthogonalEdgeStyle;rounded=0;orthogonalLoop=1;jettySize=auto;html=1;" edge="1" parent="1" source="iT8rU-bSZ2E1efpX0zBj-11" target="iT8rU-bSZ2E1efpX0zBj-12">
          <mxGeometry relative="1" as="geometry" />
        </mxCell>
        <mxCell id="iT8rU-bSZ2E1efpX0zBj-11" value="saque/50" style="strokeWidth=2;html=1;shape=mxgraph.flowchart.display;whiteSpace=wrap;" vertex="1" parent="1">
          <mxGeometry x="364" y="380" width="100" height="60" as="geometry" />
        </mxCell>
        <mxCell id="iT8rU-bSZ2E1efpX0zBj-32" value="" style="edgeStyle=orthogonalEdgeStyle;rounded=0;orthogonalLoop=1;jettySize=auto;html=1;" edge="1" parent="1" source="iT8rU-bSZ2E1efpX0zBj-12" target="iT8rU-bSZ2E1efpX0zBj-14">
          <mxGeometry relative="1" as="geometry" />
        </mxCell>
        <mxCell id="iT8rU-bSZ2E1efpX0zBj-12" value="saque = saque MOD 50" style="rounded=1;whiteSpace=wrap;html=1;absoluteArcSize=1;arcSize=14;strokeWidth=2;" vertex="1" parent="1">
          <mxGeometry x="364" y="480" width="100" height="50" as="geometry" />
        </mxCell>
        <mxCell id="iT8rU-bSZ2E1efpX0zBj-13" value="" style="edgeStyle=orthogonalEdgeStyle;rounded=0;orthogonalLoop=1;jettySize=auto;html=1;" edge="1" parent="1" source="iT8rU-bSZ2E1efpX0zBj-14" target="iT8rU-bSZ2E1efpX0zBj-15">
          <mxGeometry relative="1" as="geometry" />
        </mxCell>
        <mxCell id="iT8rU-bSZ2E1efpX0zBj-14" value="saque/20" style="strokeWidth=2;html=1;shape=mxgraph.flowchart.display;whiteSpace=wrap;" vertex="1" parent="1">
          <mxGeometry x="364" y="570" width="100" height="60" as="geometry" />
        </mxCell>
        <mxCell id="iT8rU-bSZ2E1efpX0zBj-33" value="" style="edgeStyle=orthogonalEdgeStyle;rounded=0;orthogonalLoop=1;jettySize=auto;html=1;" edge="1" parent="1" source="iT8rU-bSZ2E1efpX0zBj-15" target="iT8rU-bSZ2E1efpX0zBj-17">
          <mxGeometry relative="1" as="geometry" />
        </mxCell>
        <mxCell id="iT8rU-bSZ2E1efpX0zBj-15" value="saque = saque MOD 20" style="rounded=1;whiteSpace=wrap;html=1;absoluteArcSize=1;arcSize=14;strokeWidth=2;" vertex="1" parent="1">
          <mxGeometry x="364" y="670" width="100" height="50" as="geometry" />
        </mxCell>
        <mxCell id="iT8rU-bSZ2E1efpX0zBj-16" value="" style="edgeStyle=orthogonalEdgeStyle;rounded=0;orthogonalLoop=1;jettySize=auto;html=1;" edge="1" parent="1" source="iT8rU-bSZ2E1efpX0zBj-17" target="iT8rU-bSZ2E1efpX0zBj-18">
          <mxGeometry relative="1" as="geometry" />
        </mxCell>
        <mxCell id="iT8rU-bSZ2E1efpX0zBj-17" value="saque/10" style="strokeWidth=2;html=1;shape=mxgraph.flowchart.display;whiteSpace=wrap;" vertex="1" parent="1">
          <mxGeometry x="364" y="750" width="100" height="60" as="geometry" />
        </mxCell>
        <mxCell id="iT8rU-bSZ2E1efpX0zBj-25" value="" style="edgeStyle=orthogonalEdgeStyle;rounded=0;orthogonalLoop=1;jettySize=auto;html=1;" edge="1" parent="1" source="iT8rU-bSZ2E1efpX0zBj-18" target="iT8rU-bSZ2E1efpX0zBj-20">
          <mxGeometry relative="1" as="geometry" />
        </mxCell>
        <mxCell id="iT8rU-bSZ2E1efpX0zBj-18" value="saque = saque MOD 10" style="rounded=1;whiteSpace=wrap;html=1;absoluteArcSize=1;arcSize=14;strokeWidth=2;" vertex="1" parent="1">
          <mxGeometry x="364" y="850" width="100" height="50" as="geometry" />
        </mxCell>
        <mxCell id="iT8rU-bSZ2E1efpX0zBj-19" value="" style="edgeStyle=orthogonalEdgeStyle;rounded=0;orthogonalLoop=1;jettySize=auto;html=1;" edge="1" parent="1" source="iT8rU-bSZ2E1efpX0zBj-20" target="iT8rU-bSZ2E1efpX0zBj-21">
          <mxGeometry relative="1" as="geometry" />
        </mxCell>
        <mxCell id="iT8rU-bSZ2E1efpX0zBj-20" value="saque/5" style="strokeWidth=2;html=1;shape=mxgraph.flowchart.display;whiteSpace=wrap;" vertex="1" parent="1">
          <mxGeometry x="364" y="930" width="100" height="60" as="geometry" />
        </mxCell>
        <mxCell id="iT8rU-bSZ2E1efpX0zBj-26" value="" style="edgeStyle=orthogonalEdgeStyle;rounded=0;orthogonalLoop=1;jettySize=auto;html=1;" edge="1" parent="1" source="iT8rU-bSZ2E1efpX0zBj-21" target="iT8rU-bSZ2E1efpX0zBj-23">
          <mxGeometry relative="1" as="geometry" />
        </mxCell>
        <mxCell id="iT8rU-bSZ2E1efpX0zBj-21" value="saque = saque MOD 5" style="rounded=1;whiteSpace=wrap;html=1;absoluteArcSize=1;arcSize=14;strokeWidth=2;" vertex="1" parent="1">
          <mxGeometry x="364" y="1030" width="100" height="50" as="geometry" />
        </mxCell>
        <mxCell id="iT8rU-bSZ2E1efpX0zBj-22" value="" style="edgeStyle=orthogonalEdgeStyle;rounded=0;orthogonalLoop=1;jettySize=auto;html=1;" edge="1" parent="1" source="iT8rU-bSZ2E1efpX0zBj-23" target="iT8rU-bSZ2E1efpX0zBj-24">
          <mxGeometry relative="1" as="geometry" />
        </mxCell>
        <mxCell id="iT8rU-bSZ2E1efpX0zBj-23" value="saque/2" style="strokeWidth=2;html=1;shape=mxgraph.flowchart.display;whiteSpace=wrap;" vertex="1" parent="1">
          <mxGeometry x="364" y="1130" width="100" height="60" as="geometry" />
        </mxCell>
        <mxCell id="iT8rU-bSZ2E1efpX0zBj-29" value="" style="edgeStyle=orthogonalEdgeStyle;rounded=0;orthogonalLoop=1;jettySize=auto;html=1;" edge="1" parent="1" source="iT8rU-bSZ2E1efpX0zBj-24" target="iT8rU-bSZ2E1efpX0zBj-28">
          <mxGeometry relative="1" as="geometry" />
        </mxCell>
        <mxCell id="iT8rU-bSZ2E1efpX0zBj-24" value="saque = saque MOD 2" style="rounded=1;whiteSpace=wrap;html=1;absoluteArcSize=1;arcSize=14;strokeWidth=2;" vertex="1" parent="1">
          <mxGeometry x="364" y="1230" width="100" height="50" as="geometry" />
        </mxCell>
        <mxCell id="iT8rU-bSZ2E1efpX0zBj-31" value="" style="edgeStyle=orthogonalEdgeStyle;rounded=0;orthogonalLoop=1;jettySize=auto;html=1;" edge="1" parent="1" source="iT8rU-bSZ2E1efpX0zBj-28" target="iT8rU-bSZ2E1efpX0zBj-30">
          <mxGeometry relative="1" as="geometry" />
        </mxCell>
        <mxCell id="iT8rU-bSZ2E1efpX0zBj-28" value="saque/1" style="strokeWidth=2;html=1;shape=mxgraph.flowchart.display;whiteSpace=wrap;" vertex="1" parent="1">
          <mxGeometry x="364" y="1320" width="100" height="60" as="geometry" />
        </mxCell>
        <mxCell id="iT8rU-bSZ2E1efpX0zBj-35" value="" style="edgeStyle=orthogonalEdgeStyle;rounded=0;orthogonalLoop=1;jettySize=auto;html=1;" edge="1" parent="1" source="iT8rU-bSZ2E1efpX0zBj-30" target="iT8rU-bSZ2E1efpX0zBj-34">
          <mxGeometry relative="1" as="geometry" />
        </mxCell>
        <mxCell id="iT8rU-bSZ2E1efpX0zBj-30" value="" style="strokeWidth=2;html=1;shape=mxgraph.flowchart.start_2;whiteSpace=wrap;" vertex="1" parent="1">
          <mxGeometry x="394" y="1410" width="40" height="40" as="geometry" />
        </mxCell>
        <mxCell id="iT8rU-bSZ2E1efpX0zBj-34" value="fim" style="strokeWidth=2;html=1;shape=mxgraph.flowchart.start_1;whiteSpace=wrap;" vertex="1" parent="1">
          <mxGeometry x="364" y="1490" width="100" height="60" as="geometry" />
        </mxCell>
      </root>
    </mxGraphModel>
  </diagram>
</mxfile>
